<svg width="71" height="71" viewBox="0 0 71 71" fill="none" xmlns="http://www.w3.org/2000/svg">
<g clip-path="url(#clip0_425_387)">
<path d="M7.41457 52.3561C7.41457 51.3767 7.41457 50.3973 7.41457 49.4179C7.41457 48.1869 7.03043 47.1086 6.21671 46.1663C4.86809 44.6075 3.54838 43.0239 2.21421 41.4527C-0.743261 37.966 -0.737065 33.0484 2.23073 29.5617C3.55044 28.0111 4.8557 26.4482 6.1878 24.91C7.03869 23.9264 7.4187 22.8006 7.4187 21.5119C7.4187 19.5531 7.38773 17.5922 7.48479 15.6375C7.69958 11.2828 11.5451 7.59813 15.9029 7.51978C17.7843 7.48679 19.6658 7.50535 21.5452 7.50947C22.8071 7.51153 23.912 7.09502 24.8661 6.27644C26.4296 4.93414 27.9847 3.57946 29.5502 2.24128C33.0426 -0.746441 37.9269 -0.746441 41.4193 2.24128C42.9476 3.54647 44.478 4.8496 45.9836 6.17953C47.0183 7.09296 48.1975 7.53421 49.5772 7.51566C51.2252 7.49091 52.8754 7.50122 54.5235 7.51153C59.5875 7.54246 63.4413 11.423 63.4496 16.4953C63.4537 18.1716 63.4558 19.8459 63.4496 21.5222C63.4455 22.7573 63.842 23.8378 64.6495 24.7739C66.0622 26.4131 67.4893 28.042 68.873 29.7039C71.7458 33.1556 71.6983 37.966 68.7759 41.395C67.4728 42.9249 66.1696 44.4549 64.8375 45.9601C63.8895 47.0323 63.4104 48.2467 63.4413 49.688C63.4764 51.3107 63.4537 52.9355 63.4475 54.5603C63.4331 59.5419 59.5049 63.4637 54.5152 63.4822C52.7886 63.4884 51.0621 63.4884 49.3355 63.4822C48.0964 63.476 47.0265 63.9049 46.0951 64.707C44.5152 66.0699 42.9394 67.439 41.3512 68.7937C37.8629 71.7649 32.9558 71.7361 29.482 68.7339C27.9413 67.404 26.3944 66.0823 24.8579 64.7462C23.8831 63.8967 22.7616 63.4843 21.4667 63.4967C19.8702 63.5111 18.2717 63.5008 16.6732 63.4987C11.2601 63.4925 7.49512 59.7852 7.41044 54.3706C7.40012 53.7005 7.41044 53.0304 7.41044 52.3603L7.41457 52.3561ZM52.8031 60.3069C53.9431 60.3069 55.0852 60.3461 56.2253 60.2986C58.6809 60.1955 60.3455 58.4367 60.3558 55.9769C60.3641 54.1129 60.3517 52.2469 60.3599 50.3829C60.3723 47.7766 61.248 45.4941 62.9457 43.5208C64.4347 41.7929 65.9403 40.0774 67.4046 38.3289C68.8503 36.601 68.8028 34.236 67.3364 32.5246C65.8164 30.7493 64.2695 28.9967 62.7722 27.2028C61.1654 25.2791 60.362 23.0439 60.3599 20.5284C60.3579 18.7469 60.3599 16.9654 60.3599 15.1839C60.3558 12.4127 58.6148 10.6498 55.8411 10.625C54.0319 10.6106 52.2248 10.6127 50.4157 10.625C47.7969 10.6415 45.5251 9.74046 43.5507 8.05382C41.8592 6.60841 40.1802 5.14651 38.4928 3.69493C36.7126 2.16086 34.3726 2.1423 32.5655 3.67637C30.8265 5.1527 29.1289 6.67852 27.3837 8.14866C25.4444 9.7817 23.2015 10.6271 20.6509 10.625C18.7302 10.623 16.8116 10.5962 14.8909 10.6333C12.301 10.6828 10.5806 12.4539 10.5703 15.0313C10.5641 16.7572 10.5538 18.483 10.5703 20.2088C10.5992 23.0584 9.66985 25.5347 7.79252 27.6812C6.38194 29.2936 5.0044 30.9349 3.62893 32.5762C2.14193 34.3515 2.12747 36.5907 3.60621 38.366C5.04777 40.098 6.51618 41.8074 7.97839 43.5229C9.30843 45.0838 10.2523 46.8611 10.4051 48.9045C10.5765 51.2015 10.5414 53.5149 10.5641 55.8222C10.591 58.5914 12.2535 60.2883 15.0272 60.3131C16.8074 60.3275 18.5877 60.3131 20.37 60.3172C23.026 60.3213 25.3887 61.1296 27.4147 62.8781C29.1 64.3317 30.7873 65.7813 32.4787 67.2287C34.3623 68.8391 36.6568 68.8494 38.53 67.2514C39.4821 66.439 40.3908 65.573 41.378 64.8039C42.929 63.5956 44.4387 62.2987 46.1261 61.3172C48.1624 60.1316 50.5148 60.2533 52.801 60.311L52.8031 60.3069Z" fill="#B88D57"/>
<path d="M49.0916 24.1325C46.5286 26.611 43.9676 29.1863 41.4913 31.675C40.6425 32.5287 39.7916 33.3823 38.9407 34.2339L30.3905 42.7908L29.5871 42.0403C29.4942 41.9537 29.4074 41.8733 29.3228 41.7949C29.141 41.6279 28.9675 41.4691 28.7961 41.298L28.2406 40.7433C26.0534 38.5577 23.8642 36.3741 21.6833 34.1823C21.1732 33.6689 20.6713 33.4235 20.1096 33.4235C19.9216 33.4235 19.7275 33.4503 19.523 33.506C18.7857 33.7019 18.257 34.2029 18.0732 34.8792C17.8646 35.6442 18.1269 36.4896 18.7733 37.1432C21.0844 39.4794 23.4512 41.8403 25.7395 44.1249C26.6296 45.0136 27.5198 45.9022 28.4099 46.793C29.1286 47.5105 29.775 47.8755 30.3327 47.8755C30.8882 47.8755 31.4996 47.5332 32.2059 46.828C38.7796 40.2567 45.3493 33.6833 51.9189 27.1099L52.0511 26.98C52.2163 26.8172 52.3733 26.6625 52.4724 26.5244C53.0053 25.7759 53.0589 25.048 52.6376 24.2356C52.3588 23.6954 51.828 23.0851 50.8883 23.2439C50.2522 23.3511 49.5294 23.7098 49.0895 24.1367L49.0916 24.1325Z" fill="#B88D57"/>
</g>
<defs>
<clipPath id="clip0_425_387">
<rect width="71" height="71" fill="white"/>
</clipPath>
</defs>
</svg>
