<svg width="279" height="109" viewBox="0 0 279 109" fill="none" xmlns="http://www.w3.org/2000/svg">
<g clip-path="url(#clip0_33_219)">
<path d="M21.1418 47.9867C27.8119 46.6389 30.5207 42.8538 30.5207 38.6072C30.5207 32.9112 25.771 28.8584 17.4218 28.8584H0V31.2864L5.53825 31.9141C5.6403 37.0562 5.64958 42.2261 5.64958 47.3497V50.2577C5.64958 55.4737 5.64958 60.6343 5.53825 65.6933L0 66.3211V68.7491H16.5034C28.0623 68.7491 32.5245 63.2377 32.5245 57.8371C32.5245 53.0365 29.1848 49.1222 21.1418 47.9775V47.9867ZM11.429 31.6372H15.6314C21.7356 31.6372 24.8618 33.5574 24.8618 38.9857C24.8618 44.414 21.7263 46.7589 14.4625 46.7589H11.3084C11.3084 41.6537 11.3177 36.5947 11.429 31.6372ZM15.1119 65.9795H11.4198C11.3084 60.7635 11.3084 55.4276 11.3084 49.5284H14.6574C22.9323 49.5284 26.5502 52.3072 26.5502 57.8463C26.5502 63.0807 22.7931 65.9887 15.1119 65.9887V65.9795Z" fill="white"/>
<path d="M65.383 65.7672H50.067C49.9649 60.6528 49.9556 55.4275 49.9556 49.7777H58.8985L59.6685 55.3814H62.4144V41.3213H59.6685L58.8521 46.9897H49.9556C49.9556 41.8845 49.9556 36.8255 50.067 31.868H64.177L65.5129 39.4565H68.9731L68.5556 28.8584H38.6379V31.2864L44.1762 31.9141C44.2782 37.047 44.2875 42.2168 44.2875 47.3405V50.2762C44.2875 55.4829 44.2875 60.6435 44.1762 65.7025L38.6379 66.3303V68.7583H69.7524L70.1698 58.1602H66.7096L65.3737 65.7579L65.383 65.7672Z" fill="white"/>
<path d="M153.299 87.8962C153.856 87.6746 154.301 87.3607 154.635 86.9361C154.969 86.5206 155.136 86.0406 155.136 85.5144C155.136 84.4066 154.765 83.5757 154.013 83.0218C153.262 82.4679 152.232 82.1909 150.915 82.1909H146.796V94.4692H151.806C153.086 94.4692 154.106 94.1738 154.858 93.583C155.609 92.9921 155.989 92.1336 155.989 91.0073C155.989 90.2134 155.748 89.5302 155.266 88.9394C154.783 88.3578 154.125 88.007 153.299 87.8962ZM148.503 83.5018H150.915C151.722 83.5018 152.344 83.668 152.78 83.9911C153.206 84.3235 153.429 84.8128 153.429 85.4774C153.429 86.0867 153.225 86.5576 152.826 86.8991C152.427 87.2407 151.908 87.4069 151.277 87.4069H148.503V83.4926V83.5018ZM153.624 92.6136C153.197 92.9921 152.585 93.1768 151.806 93.1768H148.503V88.7178H151.824C152.566 88.7455 153.16 88.9671 153.605 89.3825C154.041 89.7979 154.264 90.3426 154.264 91.0258C154.264 91.7089 154.051 92.2444 153.615 92.6136H153.624Z" fill="white"/>
<path d="M163.346 82.1909L158.791 94.4692H160.535L161.667 91.312H166.426L167.539 94.4692H169.283L164.821 82.1909H163.355H163.346ZM162.159 89.9087L164.042 84.6373H164.097L165.934 89.9087H162.159Z" fill="white"/>
<path d="M181.482 92.4936V91.3396C181.482 90.6103 181.334 90.0103 181.028 89.5117C180.721 89.0225 180.221 88.6624 179.534 88.4409C180.183 88.1639 180.675 87.7946 181.018 87.3238C181.352 86.853 181.529 86.3083 181.529 85.6805C181.529 84.545 181.167 83.6772 180.434 83.0864C179.701 82.4863 178.653 82.1909 177.261 82.1909H172.938V94.46H174.645V89.1425H177.567C178.235 89.1425 178.773 89.3456 179.172 89.7518C179.571 90.158 179.775 90.6934 179.775 91.3489V92.4659C179.775 92.8629 179.803 93.2414 179.868 93.6107C179.933 93.9799 180.081 94.2661 180.304 94.4508H182.067V94.2477C181.853 94.0538 181.705 93.8138 181.612 93.5091C181.529 93.2045 181.482 92.8629 181.482 92.4844V92.4936ZM179.172 87.3053C178.746 87.6654 178.05 87.8408 177.085 87.8408H174.645V83.5018H177.261C178.133 83.5018 178.783 83.6957 179.191 84.0742C179.608 84.4527 179.812 84.9882 179.812 85.6805C179.812 86.4099 179.599 86.9545 179.172 87.3146V87.3053Z" fill="white"/>
<path d="M192.54 87.8962C193.097 87.6746 193.542 87.3607 193.876 86.9361C194.21 86.5206 194.377 86.0406 194.377 85.5144C194.377 84.4066 194.006 83.5757 193.254 83.0218C192.503 82.4679 191.473 82.1909 190.156 82.1909H186.037V94.4692H191.047C192.327 94.4692 193.347 94.1738 194.099 93.583C194.85 92.9921 195.23 92.1336 195.23 91.0073C195.23 90.2134 194.989 89.5302 194.507 88.9394C194.024 88.3578 193.366 88.007 192.54 87.8962ZM187.744 83.5018H190.156C190.963 83.5018 191.585 83.668 192.021 83.9911C192.447 84.3235 192.67 84.8128 192.67 85.4774C192.67 86.0867 192.466 86.5576 192.067 86.8991C191.668 87.2407 191.149 87.4069 190.518 87.4069H187.744V83.4926V83.5018ZM192.865 92.6136C192.438 92.9921 191.826 93.1768 191.047 93.1768H187.744V88.7178H191.065C191.817 88.7455 192.401 88.9671 192.846 89.3825C193.282 89.7979 193.505 90.3426 193.505 91.0258C193.505 91.7089 193.292 92.2444 192.856 92.6136H192.865Z" fill="white"/>
<path d="M200.843 88.7824H206.038V87.4715H200.843V83.5018H206.826V82.1909H199.136V94.4692H206.919V93.1675H200.843V88.7824Z" fill="white"/>
<path d="M219.294 92.4936V91.3396C219.294 90.6103 219.146 90.0103 218.84 89.5117C218.534 89.0132 218.033 88.6624 217.346 88.4409C217.996 88.1639 218.487 87.7946 218.831 87.3238C219.165 86.853 219.341 86.3083 219.341 85.6805C219.341 84.545 218.979 83.6772 218.246 83.0864C217.513 82.4863 216.465 82.1909 215.073 82.1909H210.75V94.46H212.457V89.1425H215.38C216.048 89.1425 216.586 89.3456 216.985 89.7518C217.383 90.158 217.588 90.6934 217.588 91.3489V92.4659C217.588 92.8629 217.615 93.2414 217.68 93.6107C217.745 93.9799 217.894 94.2661 218.116 94.4508H219.879V94.2477C219.666 94.0538 219.517 93.8138 219.424 93.5091C219.341 93.2045 219.294 92.8629 219.294 92.4844V92.4936ZM216.985 87.3053C216.558 87.6654 215.862 87.8408 214.897 87.8408H212.457V83.5018H215.073C215.946 83.5018 216.595 83.6957 217.003 84.0742C217.421 84.4527 217.625 84.9882 217.625 85.6805C217.625 86.4099 217.411 86.9545 216.985 87.3146V87.3053Z" fill="white"/>
<path d="M228.386 87.6286C227.337 87.3608 226.586 87.047 226.113 86.6869C225.649 86.3269 225.417 85.8838 225.417 85.3483C225.417 84.7482 225.63 84.259 226.057 83.8805C226.484 83.502 227.096 83.3173 227.894 83.3173C228.692 83.3173 229.313 83.5481 229.814 84.0005C230.315 84.4528 230.566 85.0344 230.566 85.7268H232.198L232.226 85.6807C232.254 84.7021 231.864 83.8435 231.076 83.1142C230.287 82.3849 229.23 82.0156 227.894 82.0156C226.66 82.0156 225.649 82.3387 224.87 82.9757C224.091 83.6127 223.71 84.4159 223.71 85.376C223.71 86.29 224.072 87.047 224.796 87.647C225.519 88.2471 226.521 88.6995 227.801 89.0133C228.84 89.2811 229.564 89.5949 229.972 89.9734C230.38 90.352 230.584 90.8135 230.584 91.3767C230.584 91.986 230.352 92.466 229.879 92.8168C229.406 93.1677 228.766 93.3523 227.959 93.3523C227.198 93.3523 226.521 93.14 225.918 92.7245C225.315 92.3091 225.018 91.709 225.018 90.9428H223.385L223.367 90.9889C223.339 92.106 223.794 92.9922 224.721 93.6569C225.658 94.3216 226.734 94.654 227.959 94.654C229.248 94.654 230.297 94.3493 231.095 93.7493C231.892 93.1492 232.3 92.3553 232.3 91.3675C232.3 90.4535 231.967 89.678 231.299 89.0595C230.631 88.4317 229.666 87.9609 228.386 87.647V87.6286Z" fill="white"/>
<path d="M244.36 87.7392H238.219V82.1909H236.512V94.4692H238.219V89.0502H244.36V94.4692H246.067V82.1909H244.36V87.7392Z" fill="white"/>
<path d="M255.307 82.0156C253.832 82.0156 252.635 82.5141 251.708 83.5112C250.78 84.5082 250.325 85.7545 250.325 87.2501V89.438C250.325 90.9336 250.789 92.1799 251.708 93.1677C252.626 94.1555 253.832 94.654 255.307 94.654C256.782 94.654 258.081 94.1555 259.036 93.1677C259.992 92.1799 260.474 90.9336 260.474 89.438V87.2501C260.474 85.7453 259.992 84.499 259.036 83.5112C258.081 82.5234 256.838 82.0249 255.307 82.0249V82.0156ZM258.758 89.4288C258.758 90.5735 258.452 91.4967 257.821 92.2168C257.2 92.9369 256.355 93.2877 255.298 93.2877C254.305 93.2877 253.507 92.9276 252.914 92.2075C252.32 91.4875 252.023 90.5643 252.023 89.4288V87.2316C252.023 86.1053 252.32 85.1821 252.914 84.4621C253.507 83.742 254.305 83.3819 255.298 83.3819C256.355 83.3819 257.19 83.742 257.812 84.4621C258.433 85.1821 258.749 86.1053 258.749 87.2316V89.4288H258.758Z" fill="white"/>
<path d="M269.565 82.1909H264.732V94.4692H266.439V89.5486H269.565C270.911 89.5486 271.959 89.2163 272.71 88.5424C273.462 87.8684 273.833 86.9822 273.833 85.8651C273.833 84.7481 273.462 83.8803 272.71 83.1971C271.959 82.514 270.911 82.1816 269.565 82.1816V82.1909ZM271.486 87.573C271.059 88.0161 270.428 88.2469 269.565 88.2469H266.439V83.5018H269.565C270.419 83.5018 271.059 83.7326 271.476 84.1849C271.894 84.6373 272.117 85.2097 272.117 85.8836C272.117 86.5575 271.903 87.1299 271.486 87.573Z" fill="white"/>
<path d="M117.185 59.3052L87.7029 47.4238V50.0457C87.7029 55.2155 91.0704 59.896 96.2932 62.0009L125.775 73.8822V71.2604C125.775 66.0906 122.407 61.41 117.185 59.3052Z" fill="white"/>
<path d="M117.185 77.5195L87.7028 65.6382V68.26C87.7028 73.4298 91.0703 78.1104 96.2932 80.2152L123.947 91.358C123.112 100.304 115.515 107.329 106.284 107.329C97.0539 107.329 89.8736 100.664 88.714 92.0504L86.9329 91.3303C87.7678 101.199 96.1169 108.991 106.275 108.991C116.99 108.991 125.766 100.377 125.766 89.7517V89.4747C125.766 84.3049 122.398 79.6244 117.175 77.5195H117.185Z" fill="white"/>
<path d="M107.583 11.4751V3.09266L114.16 9.13026H116.637L106.692 0L98.2598 9.13026H100.542L105.904 3.33268V11.4474C95.4304 11.7244 86.9421 20.2084 86.9421 30.6588V30.9358C86.9421 36.1056 90.3096 40.7861 95.5325 42.891L125.014 54.7723V52.1505C125.014 46.9807 121.647 42.3002 116.424 40.1953L88.7697 29.0525C89.6046 20.1069 97.2023 13.0815 106.433 13.0815C115.663 13.0815 122.843 19.7468 124.003 28.3601L125.784 29.0802C124.986 19.5899 117.231 12.0475 107.602 11.4751H107.583Z" fill="white"/>
<path d="M190.759 66.3306L185.23 65.7029C185.128 60.5885 185.119 55.4556 185.119 50.3504V47.4239C185.119 42.2449 185.119 37.1027 185.23 32.0714L190.75 31.4436V29.0249H178.903L166.175 61.7147L152.733 29.0249H141.638V31.4436L147.037 32.1083V65.5644L141.61 66.3306V68.7494H155.071V66.3306L150.145 65.5829V46.87L149.802 35.5333L163.513 68.7402H166.556L179.571 35.5333V50.4058C179.562 55.5294 179.553 60.6531 179.45 65.6937L174.376 66.3214V68.7402H190.759V66.3214V66.3306Z" fill="white"/>
<path d="M217.625 28.7388H213.877L201.066 65.5829L196.028 66.3307V68.7494H209.786V66.3307L203.932 65.5368L207.263 55.8526H221.196L224.508 65.6476L218.608 66.3492V68.7587H234.954V66.3492L230.399 65.8045L217.625 28.748V28.7388ZM208.218 53.0738L214.285 35.4134L220.259 53.0738H208.218Z" fill="white"/>
<path d="M273.898 29.0249H270.846H264.51V31.4436L270.846 32.2191V58.5021L249.175 29.0249H239.907V31.4436L244.175 31.9606L244.722 32.7084V65.6106L239.62 66.3307V68.7494H244.722H247.774H254.11V66.3307L247.774 65.5183V36.8166L271.801 69.1464H273.898V62.6472V32.2006L279 31.4436V29.0249H273.898Z" fill="white"/>
</g>
<defs>
<clipPath id="clip0_33_219">
<rect width="279" height="109" fill="white"/>
</clipPath>
</defs>
</svg>
