<svg width="179" height="70" viewBox="0 0 179 70" fill="none" xmlns="http://www.w3.org/2000/svg">
<g clip-path="url(#clip0_29_59)">
<path d="M13.5641 30.8173C17.8435 29.9517 19.5814 27.521 19.5814 24.7938C19.5814 21.1358 16.5341 18.5331 11.1775 18.5331H0V20.0923L3.55322 20.4955C3.61869 23.7977 3.62464 27.1178 3.62464 30.4082V32.2758C3.62464 35.6255 3.62464 38.9396 3.55322 42.1885L0 42.5917V44.1509H10.5882C18.0042 44.1509 20.867 40.6115 20.867 37.1432C20.867 34.0603 18.7243 31.5465 13.5641 30.8114V30.8173ZM7.3326 20.3176H10.0288C13.945 20.3176 15.9508 21.5508 15.9508 25.0368C15.9508 28.5229 13.9391 30.0288 9.27884 30.0288H7.25523C7.25523 26.7502 7.26118 23.5013 7.3326 20.3176ZM9.69546 42.3723H7.32665C7.25523 39.0226 7.25523 35.5958 7.25523 31.8074H9.40382C14.7128 31.8074 17.034 33.5919 17.034 37.1491C17.034 40.5107 14.6235 42.3783 9.69546 42.3783V42.3723Z" fill="black"/>
<path d="M41.9483 42.236H32.1219C32.0564 38.9515 32.0505 35.5958 32.0505 31.9675H37.788L38.282 35.5662H40.0437V26.5368H38.282L37.7582 30.177H32.0505C32.0505 26.8985 32.0505 23.6495 32.1219 20.4658H41.1746L42.0316 25.3392H44.2516L43.9838 18.5331H24.7893V20.0923L28.3425 20.4955C28.408 23.7918 28.4139 27.1119 28.4139 30.4023V32.2876C28.4139 35.6314 28.4139 38.9455 28.3425 42.1945L24.7893 42.5976V44.1569H44.7516L45.0194 37.3507H42.7994L41.9424 42.23L41.9483 42.236Z" fill="black"/>
<path d="M98.3534 56.447C98.7105 56.3047 98.9961 56.1032 99.2104 55.8304C99.4247 55.5636 99.5318 55.2554 99.5318 54.9174C99.5318 54.206 99.2937 53.6724 98.8116 53.3167C98.3295 52.961 97.6689 52.7831 96.8237 52.7831H94.1812V60.6683H97.3951C98.2165 60.6683 98.8712 60.4785 99.3532 60.0991C99.8353 59.7197 100.079 59.1683 100.079 58.445C100.079 57.9351 99.9246 57.4964 99.6151 57.117C99.3056 56.7435 98.8831 56.5182 98.3534 56.447ZM95.2763 53.625H96.8237C97.3415 53.625 97.7403 53.7317 98.0201 53.9392C98.2938 54.1526 98.4367 54.4668 98.4367 54.8937C98.4367 55.285 98.3057 55.5874 98.0498 55.8067C97.7939 56.0261 97.4606 56.1328 97.0559 56.1328H95.2763V53.619V53.625ZM98.5617 59.4766C98.2879 59.7197 97.8951 59.8382 97.3951 59.8382H95.2763V56.9747H97.407C97.8832 56.9925 98.2641 57.1348 98.5498 57.4015C98.8295 57.6683 98.9723 58.0181 98.9723 58.4568C98.9723 58.8956 98.8354 59.2394 98.5557 59.4766H98.5617Z" fill="black"/>
<path d="M104.799 52.7831L101.877 60.6683H102.996L103.722 58.6406H106.775L107.489 60.6683H108.608L105.745 52.7831H104.805H104.799ZM104.037 57.7395L105.245 54.3542H105.281L106.46 57.7395H104.037Z" fill="black"/>
<path d="M116.435 59.3995V58.6584C116.435 58.1901 116.339 57.8047 116.143 57.4845C115.947 57.1703 115.625 56.9391 115.185 56.7968C115.601 56.619 115.917 56.3818 116.137 56.0794C116.351 55.7771 116.464 55.4273 116.464 55.0241C116.464 54.2949 116.232 53.7376 115.762 53.3582C115.292 52.9728 114.619 52.7831 113.727 52.7831H110.953V60.6623H112.048V57.2474H113.923C114.352 57.2474 114.697 57.3778 114.953 57.6387C115.209 57.8996 115.34 58.2434 115.34 58.6644V59.3817C115.34 59.6367 115.357 59.8797 115.399 60.1169C115.441 60.354 115.536 60.5378 115.679 60.6564H116.81V60.526C116.673 60.4015 116.578 60.2473 116.518 60.0517C116.464 59.856 116.435 59.6367 116.435 59.3936V59.3995ZM114.953 56.0676C114.679 56.2988 114.233 56.4115 113.614 56.4115H112.048V53.625H113.727C114.286 53.625 114.703 53.7495 114.965 53.9925C115.232 54.2356 115.363 54.5795 115.363 55.0241C115.363 55.4925 115.227 55.8423 114.953 56.0735V56.0676Z" fill="black"/>
<path d="M123.529 56.447C123.886 56.3047 124.172 56.1032 124.386 55.8304C124.601 55.5636 124.708 55.2554 124.708 54.9174C124.708 54.206 124.47 53.6724 123.988 53.3167C123.506 52.961 122.845 52.7831 122 52.7831H119.357V60.6683H122.571C123.392 60.6683 124.047 60.4785 124.529 60.0991C125.011 59.7197 125.255 59.1683 125.255 58.445C125.255 57.9351 125.101 57.4964 124.791 57.117C124.482 56.7435 124.059 56.5182 123.529 56.447ZM120.452 53.625H122C122.518 53.625 122.916 53.7317 123.196 53.9392C123.47 54.1526 123.613 54.4668 123.613 54.8937C123.613 55.285 123.482 55.5874 123.226 55.8067C122.97 56.0261 122.637 56.1328 122.232 56.1328H120.452V53.619V53.625ZM123.738 59.4766C123.464 59.7197 123.071 59.8382 122.571 59.8382H120.452V56.9747H122.583C123.065 56.9925 123.44 57.1348 123.726 57.4015C124.006 57.6683 124.148 58.0181 124.148 58.4568C124.148 58.8956 124.011 59.2394 123.732 59.4766H123.738Z" fill="black"/>
<path d="M128.856 57.0162H132.189V56.1743H128.856V53.625H132.695V52.7831H127.761V60.6683H132.755V59.8323H128.856V57.0162Z" fill="black"/>
<path d="M140.694 59.3995V58.6584C140.694 58.1901 140.599 57.8047 140.403 57.4845C140.206 57.1644 139.885 56.9391 139.444 56.7968C139.861 56.619 140.176 56.3818 140.397 56.0794C140.611 55.7771 140.724 55.4273 140.724 55.0241C140.724 54.2949 140.492 53.7376 140.022 53.3582C139.552 52.9728 138.879 52.7831 137.986 52.7831H135.213V60.6623H136.308V57.2474H138.183C138.611 57.2474 138.956 57.3778 139.212 57.6387C139.468 57.8996 139.599 58.2434 139.599 58.6644V59.3817C139.599 59.6367 139.617 59.8797 139.659 60.1169C139.7 60.354 139.796 60.5378 139.938 60.6564H141.069V60.526C140.932 60.4015 140.837 60.2473 140.778 60.0517C140.724 59.856 140.694 59.6367 140.694 59.3936V59.3995ZM139.212 56.0676C138.938 56.2988 138.492 56.4115 137.873 56.4115H136.308V53.625H137.986C138.546 53.625 138.962 53.7495 139.224 53.9925C139.492 54.2356 139.623 54.5795 139.623 55.0241C139.623 55.4925 139.486 55.8423 139.212 56.0735V56.0676Z" fill="black"/>
<path d="M146.527 56.2751C145.855 56.1032 145.372 55.9016 145.069 55.6704C144.771 55.4391 144.623 55.1546 144.623 54.8107C144.623 54.4253 144.759 54.1111 145.033 53.868C145.307 53.625 145.7 53.5064 146.212 53.5064C146.723 53.5064 147.122 53.6546 147.444 53.9451C147.765 54.2356 147.926 54.6091 147.926 55.0538H148.973L148.991 55.0241C149.009 54.3957 148.759 53.8443 148.253 53.376C147.747 52.9076 147.069 52.6704 146.212 52.6704C145.42 52.6704 144.771 52.878 144.271 53.287C143.771 53.6961 143.527 54.2119 143.527 54.8285C143.527 55.4154 143.76 55.9016 144.224 56.287C144.688 56.6723 145.331 56.9628 146.152 57.1644C146.819 57.3363 147.283 57.5379 147.545 57.781C147.807 58.0241 147.938 58.3205 147.938 58.6821C147.938 59.0734 147.789 59.3817 147.485 59.607C147.182 59.8323 146.771 59.9509 146.253 59.9509C145.765 59.9509 145.331 59.8145 144.944 59.5477C144.557 59.2809 144.367 58.8956 144.367 58.4035H143.319L143.307 58.4331C143.289 59.1505 143.581 59.7197 144.176 60.1465C144.777 60.5734 145.468 60.7868 146.253 60.7868C147.081 60.7868 147.753 60.5912 148.265 60.2058C148.777 59.8204 149.039 59.3106 149.039 58.6762C149.039 58.0893 148.824 57.5913 148.396 57.194C147.967 56.7909 147.348 56.4885 146.527 56.287V56.2751Z" fill="black"/>
<path d="M156.776 56.3462H152.836V52.7831H151.741V60.6683H152.836V57.1881H156.776V60.6683H157.871V52.7831H156.776V56.3462Z" fill="black"/>
<path d="M163.799 52.6704C162.853 52.6704 162.085 52.9906 161.49 53.6309C160.895 54.2712 160.603 55.0716 160.603 56.032V57.4371C160.603 58.3976 160.901 59.1979 161.49 59.8323C162.079 60.4667 162.853 60.7868 163.799 60.7868C164.745 60.7868 165.579 60.4667 166.192 59.8323C166.805 59.1979 167.114 58.3976 167.114 57.4371V56.032C167.114 55.0656 166.805 54.2653 166.192 53.6309C165.579 52.9965 164.781 52.6764 163.799 52.6764V52.6704ZM166.013 57.4312C166.013 58.1663 165.817 58.7592 165.412 59.2216C165.013 59.6841 164.472 59.9094 163.793 59.9094C163.156 59.9094 162.644 59.6782 162.264 59.2157C161.883 58.7533 161.692 58.1604 161.692 57.4312V56.0202C161.692 55.2969 161.883 54.704 162.264 54.2416C162.644 53.7791 163.156 53.5479 163.793 53.5479C164.472 53.5479 165.007 53.7791 165.406 54.2416C165.805 54.704 166.007 55.2969 166.007 56.0202V57.4312H166.013Z" fill="black"/>
<path d="M172.947 52.7831H169.846V60.6682H170.941V57.5083H172.947C173.81 57.5083 174.483 57.2948 174.965 56.862C175.447 56.4292 175.685 55.8601 175.685 55.1427C175.685 54.4253 175.447 53.868 174.965 53.4293C174.483 52.9906 173.81 52.7772 172.947 52.7772V52.7831ZM174.179 56.2395C173.905 56.5241 173.501 56.6723 172.947 56.6723H170.941V53.625H172.947C173.495 53.625 173.905 53.7732 174.173 54.0637C174.441 54.3542 174.584 54.7218 174.584 55.1546C174.584 55.5874 174.447 55.9549 174.179 56.2395Z" fill="black"/>
<path d="M75.1831 38.0859L56.2683 30.4557V32.1394C56.2683 35.4595 58.4288 38.4653 61.7797 39.8171L80.6944 47.4473V45.7635C80.6944 42.4435 78.5339 39.4376 75.1831 38.0859Z" fill="black"/>
<path d="M75.1829 49.7832L56.2682 42.153V43.8367C56.2682 47.1568 58.4287 50.1626 61.7795 51.5143L79.5218 58.6703C78.9861 64.4152 74.1116 68.9269 68.1896 68.9269C62.2676 68.9269 57.6609 64.6464 56.9169 59.1149L55.7742 58.6525C56.3098 64.9903 61.6664 69.9941 68.1836 69.9941C75.058 69.9941 80.6884 64.4626 80.6884 57.6387V57.4608C80.6884 54.1408 78.5279 51.1349 75.177 49.7832H75.1829Z" fill="black"/>
<path d="M69.023 7.36936V1.98611L73.2428 5.86347H74.8319L68.4516 0L63.0415 5.86347H64.5056L67.9457 2.14026V7.35157C61.2262 7.52943 55.7803 12.9779 55.7803 19.6892V19.867C55.7803 23.1871 57.9408 26.1929 61.2916 27.5447L80.2064 35.1749V33.4911C80.2064 30.1711 78.0459 27.1652 74.6951 25.8135L56.9528 18.6576C57.4884 12.9127 62.363 8.40095 68.285 8.40095C74.207 8.40095 78.8137 12.6815 79.5577 18.2129L80.7004 18.6754C80.1885 12.5807 75.2129 7.73694 69.0349 7.36936H69.023Z" fill="black"/>
<path d="M122.387 42.5976L118.839 42.1945C118.774 38.91 118.768 35.6136 118.768 32.3351V30.4557C118.768 27.1297 118.768 23.8274 118.839 20.5963L122.381 20.1931V18.6398H114.78L106.614 39.6333L97.9902 18.6398H90.8719V20.1931L94.3358 20.62V42.1055L90.854 42.5976V44.1509H99.4901V42.5976L96.3297 42.1174V30.0999L96.1094 22.8195L104.906 44.145H106.858L115.209 22.8195V32.3706C115.203 35.661 115.197 38.9515 115.131 42.1885L111.876 42.5917V44.145H122.387V42.5917V42.5976Z" fill="black"/>
<path d="M139.623 18.456H137.218L128.999 42.1174L125.767 42.5976V44.1509H134.594V42.5976L130.838 42.0877L132.975 35.8686H141.914L144.039 42.1589L140.254 42.6095V44.1569H150.741V42.6095L147.818 42.2597L139.623 18.4619V18.456ZM133.588 34.084L137.48 22.7424L141.313 34.084H133.588Z" fill="black"/>
<path d="M175.726 18.6398H173.768H169.703V20.1931L173.768 20.6911V37.5701L159.865 18.6398H153.919V20.1931L156.657 20.5251L157.008 21.0053V42.1352L153.735 42.5976V44.1509H157.008H158.966H163.031V42.5976L158.966 42.0759V23.6436L174.381 44.4059H175.726V40.2321V20.6793L179 20.1931V18.6398H175.726Z" fill="black"/>
</g>
<defs>
<clipPath id="clip0_29_59">
<rect width="179" height="70" fill="white"/>
</clipPath>
</defs>
</svg>
